<svg width="44" height="44" viewBox="0 0 44 44" fill="none" xmlns="http://www.w3.org/2000/svg">
<g clip-path="url(#clip0_2_292)">
<path d="M36.6667 12.8333V9.16667H7.33335V34.8333H36.6667V31.1667H22C21.5138 31.1667 21.0475 30.9735 20.7037 30.6297C20.3598 30.2859 20.1667 29.8196 20.1667 29.3333V14.6667C20.1667 14.1804 20.3598 13.7141 20.7037 13.3703C21.0475 13.0265 21.5138 12.8333 22 12.8333H36.6667ZM5.50002 5.5H38.5C38.9863 5.5 39.4526 5.69315 39.7964 6.03697C40.1402 6.38079 40.3334 6.8471 40.3334 7.33333V36.6667C40.3334 37.1529 40.1402 37.6192 39.7964 37.963C39.4526 38.3068 38.9863 38.5 38.5 38.5H5.50002C5.01379 38.5 4.54747 38.3068 4.20366 37.963C3.85984 37.6192 3.66669 37.1529 3.66669 36.6667V7.33333C3.66669 6.8471 3.85984 6.38079 4.20366 6.03697C4.54747 5.69315 5.01379 5.5 5.50002 5.5ZM23.8334 16.5V27.5H36.6667V16.5H23.8334ZM27.5 20.1667H33V23.8333H27.5V20.1667Z" fill="#738CFD"/>
</g>
<defs>
<clipPath id="clip0_2_292">
<rect width="44" height="44" fill="white"/>
</clipPath>
</defs>
</svg>
