<svg width="44" height="44" viewBox="0 0 44 44" fill="none" xmlns="http://www.w3.org/2000/svg">
<g clip-path="url(#clip0_2_275)">
<path d="M38.4996 7.33256V34.3211C38.4998 34.4989 38.4483 34.673 38.3513 34.8221C38.2543 34.9712 38.116 35.0889 37.9533 35.1607L21.9996 42.2209L6.04595 35.1626C5.88266 35.0905 5.74398 34.9722 5.64693 34.8224C5.54988 34.6726 5.49868 34.4977 5.49961 34.3192V7.33256H1.83295V3.66589H42.1663V7.33256H38.4996ZM9.16628 7.33256V32.5317L21.9996 38.2151L34.8329 32.5317V7.33256H9.16628ZM14.6663 14.6659H29.3329V18.3326H14.6663V14.6659ZM14.6663 21.9992H29.3329V25.6659H14.6663V21.9992Z" fill="#FF8548"/>
</g>
<defs>
<clipPath id="clip0_2_275">
<rect width="44" height="44" fill="white"/>
</clipPath>
</defs>
</svg>
