<svg width="44" height="44" viewBox="0 0 44 44" fill="none" xmlns="http://www.w3.org/2000/svg">
<g clip-path="url(#clip0_2_309)">
<path d="M36.6666 40.3333H33V36.6666C33 35.208 32.4205 33.809 31.3891 32.7776C30.3576 31.7461 28.9587 31.1666 27.5 31.1666H16.5C15.0413 31.1666 13.6423 31.7461 12.6109 32.7776C11.5794 33.809 11 35.208 11 36.6666V40.3333H7.33331V36.6666C7.33331 34.2355 8.29908 31.9039 10.0182 30.1848C11.7373 28.4658 14.0688 27.5 16.5 27.5H27.5C29.9311 27.5 32.2627 28.4658 33.9818 30.1848C35.7009 31.9039 36.6666 34.2355 36.6666 36.6666V40.3333ZM22 23.8333C20.5554 23.8333 19.125 23.5488 17.7905 22.996C16.4559 22.4432 15.2432 21.6329 14.2218 20.6115C13.2004 19.59 12.3901 18.3774 11.8373 17.0428C11.2845 15.7083 11 14.2779 11 12.8333C11 11.3888 11.2845 9.95838 11.8373 8.6238C12.3901 7.28921 13.2004 6.07658 14.2218 5.05514C15.2432 4.03369 16.4559 3.22344 17.7905 2.67064C19.125 2.11784 20.5554 1.83331 22 1.83331C24.9174 1.83331 27.7153 2.99224 29.7782 5.05514C31.8411 7.11804 33 9.91593 33 12.8333C33 15.7507 31.8411 18.5486 29.7782 20.6115C27.7153 22.6744 24.9174 23.8333 22 23.8333ZM22 20.1666C23.9449 20.1666 25.8102 19.394 27.1854 18.0188C28.5607 16.6435 29.3333 14.7782 29.3333 12.8333C29.3333 10.8884 28.5607 9.02313 27.1854 7.64786C25.8102 6.2726 23.9449 5.49998 22 5.49998C20.0551 5.49998 18.1898 6.2726 16.8145 7.64786C15.4393 9.02313 14.6666 10.8884 14.6666 12.8333C14.6666 14.7782 15.4393 16.6435 16.8145 18.0188C18.1898 19.394 20.0551 20.1666 22 20.1666Z" fill="#FFCB4B"/>
</g>
<defs>
<clipPath id="clip0_2_309">
<rect width="44" height="44" fill="white"/>
</clipPath>
</defs>
</svg>
